<?xml version="1.0" encoding="utf-8"?>
<!-- Generator: Adobe Illustrator 22.1.0, SVG Export Plug-In . SVG Version: 6.00 Build 0)  -->
<svg version="1.1" id="Capa_1" xmlns="http://www.w3.org/2000/svg" xmlns:xlink="http://www.w3.org/1999/xlink" x="0px" y="0px"
	 viewBox="0 0 438.5 438.5" style="enable-background:new 0 0 438.5 438.5;" xml:space="preserve">
<style type="text/css">
	.st0{fill:#FFFFFF;}
</style>
<g>
	<g>
		<g>
			<path class="st0" d="M323.9,255.4l-32.8-100.8c-1.9-5.9-5.4-10.7-10.5-14.3c-5.1-3.7-10.7-5.5-16.8-5.5H133.7
				c-6.1,0-11.7,1.8-16.8,5.5c-5.1,3.7-8.6,8.4-10.5,14.3L73.6,255.4c-1.8,5.5-2.7,9.7-2.7,12.5v53.3c0,7.3,2.6,13.6,7.8,18.8
				c5.2,5.2,11.5,7.8,18.8,7.8h202.4c7.3,0,13.6-2.6,18.8-7.8c5.2-5.2,7.8-11.5,7.8-18.8v-53.3C326.6,265.2,325.7,261,323.9,255.4z
				 M126.7,161.1c0.4-1.4,1.3-2.6,2.7-3.6c1.3-0.9,2.8-1.4,4.3-1.4h130.1c1.6,0,3,0.5,4.3,1.4c1.3,0.9,2.2,2.1,2.7,3.6l26.1,80.2
				H100.6L126.7,161.1z M305.3,321.2c0,1.4-0.5,2.7-1.6,3.7c-1.1,1.1-2.3,1.6-3.7,1.6H97.6c-1.4,0-2.7-0.5-3.7-1.6
				c-1.1-1.1-1.6-2.3-1.6-3.7v-53.3c0-1.4,0.5-2.7,1.6-3.7c1.1-1.1,2.3-1.6,3.7-1.6h202.4c1.4,0,2.7,0.5,3.7,1.6
				c1.1,1.1,1.6,2.3,1.6,3.7L305.3,321.2L305.3,321.2z"/>
			<path class="st0" d="M230.7,281.2c-3.7,0-6.8,1.3-9.4,3.9c-2.6,2.6-3.9,5.7-3.9,9.4c0,3.7,1.3,6.8,3.9,9.4
				c2.6,2.6,5.7,3.9,9.4,3.9s6.8-1.3,9.4-3.9c2.6-2.6,3.9-5.7,3.9-9.4c0-3.7-1.3-6.8-3.9-9.4C237.5,282.5,234.4,281.2,230.7,281.2z"
				/>
			<path class="st0" d="M273.3,281.2c-3.7,0-6.8,1.3-9.4,3.9c-2.6,2.6-3.9,5.7-3.9,9.4c0,3.7,1.3,6.8,3.9,9.4
				c2.6,2.6,5.7,3.9,9.4,3.9c3.7,0,6.8-1.3,9.4-3.9c2.6-2.6,3.9-5.7,3.9-9.4c0-3.7-1.3-6.8-3.9-9.4
				C280.1,282.5,277,281.2,273.3,281.2z"/>
		</g>
	</g>
	<path class="st0" d="M364.9,181.4L332.1,80.5c-1.9-5.9-5.4-10.7-10.5-14.3c-5.1-3.7-10.7-5.5-16.8-5.5H174.7
		c-6.1,0-11.7,1.8-16.8,5.5c-5.1,3.7-8.6,8.4-10.5,14.3l-15.8,47H154L167.7,87c0.4-1.4,1.3-2.6,2.7-3.6c1.3-0.9,2.8-1.4,4.3-1.4
		h130.1c1.6,0,3,0.5,4.3,1.4c1.3,0.9,2.2,2.1,2.7,3.6l26.1,80.2h-35.6l6.5,21.3H341c1.4,0,2.7,0.5,3.7,1.6c1.1,1.1,1.6,2.3,1.6,3.7
		v53.3h0c0,1.4-0.5,2.7-1.6,3.7c-1.1,1.1-2.3,1.6-3.7,1.6h-12.8l2.4,4.5c0.6,1.8,1.2,2,1.4,5.6c0.3,3.9,0.1,8.5,0.4,11.2h8.6
		c7.3,0,13.6-2.6,18.8-7.8c5.2-5.2,7.8-11.5,7.8-18.8v-53.3C367.6,191.1,366.7,186.9,364.9,181.4z"/>
</g>
</svg>
