<?xml version="1.0" encoding="utf-8"?>
<!-- Generator: Adobe Illustrator 22.1.0, SVG Export Plug-In . SVG Version: 6.00 Build 0)  -->
<svg version="1.1" id="Layer_1" xmlns="http://www.w3.org/2000/svg" xmlns:xlink="http://www.w3.org/1999/xlink" x="0px" y="0px"
	 viewBox="0 0 48 48" style="enable-background:new 0 0 48 48;" xml:space="preserve">
<style type="text/css">
	.st0{fill:#FFFFFF;}
	.st1{fill:#1E1E1E;}
</style>
<g id="Layer_x0020_1">
	<g id="_1789823519136">
		<path class="st0" d="M2.2,37.7v-2.3c0-1.7,1.6-3.5,3.3-3.5h26.3c1.7,0,3.2,1.7,3.2,3.5v2.3c0,1.7-1.6,3.4-3.2,3.4H5.5
			C3.8,41.1,2.2,39.4,2.2,37.7z M47.4,32.1v2.2c-0.2,2-1.2,4.1-3.3,5c-2,0.9-5.3,0.5-7.8,0.5c-0.7,1.5-2.3,3-4.2,3H5.3
			c-2.2,0-4.7-2.6-4.7-5v-2.7c0.1-0.4,0.2-0.9,0.6-2l0.9-7c0.3-2,1.4-12.4,1.9-13.8c1.7-5,6.6-4.1,11-4.1c0.8-1.5,2.5-3,4.7-3H39
			c1.2,0,2.4,0.7,3.1,1.3c2.4,1.9,2.5,6.8,3,10.4c0.2,2.4,1.2,11.7,2,13.9C47.2,31.2,47.3,31.6,47.4,32.1z M3.2,31L5,15.9
			c0.1-1,0.2-2.2,0.4-3c0.5-1.5,2.2-3,3.9-3H28c4.5,0,4.2,5.9,4.7,8.9L34.3,31c-0.6-0.4-1.3-0.7-2.2-0.7H5.3
			C4.5,30.3,3.7,30.7,3.2,31z M35.5,28.7c3.6,0,10.2-1.2,10.2,3.7v2.1c0,4.6-6,3.6-8.9,3.6c0-6.3-0.4-2.7-0.8-5.8
			C35.9,31.6,35.7,29.1,35.5,28.7z M19.6,6.8h19.2c4.2,0,4,5.9,4.5,8.9l1.6,12c-1-0.2-1.5-0.7-3-0.7h-6.5l-1-8.3
			c-0.9-6.5-0.6-10.6-8.1-10.6c-3.1,0-6.1,0-9.1,0C17.5,7.6,18.5,6.8,19.6,6.8z"/>
		<path class="st1" d="M40.2,33.5c0-1.2,1.3-1.2,1.3,0C41.5,34.3,40.2,34.3,40.2,33.5z M38.6,33.3c0,3.1,4.6,3.6,4.6-0.2
			C43.2,30.3,38.6,30.4,38.6,33.3z"/>
		<path class="st1" d="M30,37.3c-0.5-0.8-0.5-0.6,0-1.5c0.9,0.1,0.8,0.1,1.1,0.8C30.8,37.1,30.9,37.2,30,37.3z M28,36.6
			c0,1.5,2.2,3.6,4,1.7c0.4-0.4,0.7-1,0.6-1.7c0-1.4-1.3-2.5-2.3-2.5C29.3,34,28,35.4,28,36.6z"/>
	</g>
</g>
</svg>
