<?xml version="1.0" encoding="UTF-8"?>
<!DOCTYPE svg PUBLIC "-//W3C//DTD SVG 1.1//EN" "http://www.w3.org/Graphics/SVG/1.1/DTD/svg11.dtd">
<!-- Creator: CorelDRAW X8 -->
<svg xmlns="http://www.w3.org/2000/svg" xml:space="preserve" width="0.666661in" height="0.666661in" version="1.1" style="shape-rendering:geometricPrecision; text-rendering:geometricPrecision; image-rendering:optimizeQuality; fill-rule:evenodd; clip-rule:evenodd"
viewBox="0 0 667 667"
 xmlns:xlink="http://www.w3.org/1999/xlink">
 <defs>
  <style type="text/css">
   <![CDATA[
    .fil0 {fill:#CD2122}
   ]]>
  </style>
 </defs>
 <g id="Layer_x0020_1">
  <metadata id="CorelCorpID_0Corel-Layer"/>
  <g id="_1789823519136">
   <path class="fil0" d="M31 524l0 -32c0,-24 22,-48 46,-48l366 0c23,0 45,24 45,48l0 32c0,24 -22,47 -45,47l-366 0c-24,0 -46,-23 -46,-47zm627 -78l0 31c-3,28 -16,57 -46,69 -28,12 -73,7 -109,7 -10,21 -32,42 -58,42l-371 0c-31,0 -66,-36 -66,-69l0 -38c1,-6 3,-13 8,-28l13 -97c4,-28 20,-173 27,-192 23,-69 92,-57 153,-57 11,-21 35,-42 66,-42l267 0c17,0 33,10 43,18 33,27 35,94 41,145 3,34 16,163 28,193 2,5 3,11 4,18zm-614 -15l26 -210c2,-14 3,-31 6,-41 7,-21 30,-42 54,-42l259 0c62,0 59,82 65,123l22 170c-9,-5 -18,-10 -31,-10l-371 0c-12,0 -22,5 -30,10zm449 -32c50,0 142,-16 142,51l0 29c0,64 -84,50 -124,50 0,-88 -5,-38 -11,-81 -1,-9 -4,-43 -7,-49zm-221 -304l267 0c59,0 56,82 62,124l22 167c-14,-3 -21,-10 -41,-10l-91 0 -14 -115c-13,-91 -9,-147 -113,-147 -43,0 -85,0 -127,0 6,-9 20,-19 35,-19z"/>
   <path class="fil0" d="M559 466c0,-16 18,-16 18,0 0,11 -18,11 -18,0zm-23 -3c0,43 64,50 64,-3 0,-39 -64,-38 -64,3z"/>
   <path class="fil0" d="M417 518c-7,-11 -7,-9 0,-21 12,1 11,2 15,11 -4,8 -3,9 -15,10zm-28 -10c0,21 30,50 56,23 5,-5 10,-14 9,-23 0,-20 -18,-35 -32,-35 -15,0 -33,19 -33,35z"/>
  </g>
 </g>
</svg>
