<?xml version="1.0" encoding="UTF-8"?>
<!DOCTYPE svg PUBLIC "-//W3C//DTD SVG 1.1//EN" "http://www.w3.org/Graphics/SVG/1.1/DTD/svg11.dtd">
<!-- Creator: CorelDRAW X8 -->
<svg xmlns="http://www.w3.org/2000/svg" xml:space="preserve" width="0.666661in" height="0.666661in" version="1.1" style="shape-rendering:geometricPrecision; text-rendering:geometricPrecision; image-rendering:optimizeQuality; fill-rule:evenodd; clip-rule:evenodd"
viewBox="0 0 667 667"
 xmlns:xlink="http://www.w3.org/1999/xlink">
 <defs>
  <style type="text/css">
   <![CDATA[
    .fil0 {fill:#CD2122}
   ]]>
  </style>
 </defs>
 <g id="Layer_x0020_1">
  <metadata id="CorelCorpID_0Corel-Layer"/>
  <g id="_1789915814816">
   <path class="fil0" d="M86 612c-3,-12 -1,-535 -1,-546 0,-26 12,-31 37,-31l411 0c59,0 49,8 49,87 0,23 0,46 0,69 0,46 0,91 0,137 0,91 0,182 0,273 0,26 -12,31 -37,30l-411 0c-22,0 -44,2 -48,-19zm19 -601c-55,6 -45,65 -45,104l0 448c0,33 -9,93 54,93 37,0 431,2 449,0 20,-2 35,-17 41,-33 5,-16 3,-196 3,-221 0,-99 0,-199 0,-298 0,-34 9,-94 -55,-94 -34,0 -431,-1 -447,1z"/>
   <path class="fil0" d="M361 530c-29,-33 -27,-20 -64,-26 -65,-12 -124,-59 -149,-123 -42,-111 19,-208 89,-246 144,-80 312,39 294,197 -4,36 -18,69 -39,96 -7,10 -15,17 -21,25l23 11c6,-7 13,-14 22,-27 90,-131 22,-303 -121,-343 -56,-16 -119,-9 -166,16 -42,23 -75,56 -97,100 -48,102 -15,221 72,281 39,26 97,49 157,39z"/>
   <path class="fil0" d="M347 446c10,2 116,58 140,71 9,4 15,6 18,17 7,19 -12,38 -32,31 -7,-3 -39,-35 -47,-42 -3,-3 -5,-5 -9,-8 -6,-6 -11,-12 -18,-17 -4,-4 -52,-48 -52,-51l-6 -3c3,-1 3,-1 6,2zm-32 0c2,11 16,22 22,27l88 83c12,10 23,26 40,32 30,12 55,-8 63,-28 6,-14 4,-29 -2,-41 -6,-13 -13,-17 -26,-24l-129 -65c-10,-5 -24,-15 -37,-12 -11,2 -21,13 -19,28z"/>
   <path class="fil0" d="M328 247c36,-4 64,23 67,55 4,37 -24,66 -57,68 -35,3 -64,-24 -67,-57 -2,-35 25,-63 57,-66zm-10 -24c-78,14 -95,114 -37,155 13,9 31,19 48,15 10,-1 12,0 21,0 30,1 80,-44 69,-101 -8,-42 -49,-78 -101,-69z"/>
   <path class="fil0" d="M128 61c-33,10 -17,58 15,47 30,-10 16,-56 -15,-47z"/>
   <path class="fil0" d="M158 589c5,-15 -4,-27 -15,-31 -15,-4 -28,4 -32,15 -11,33 38,46 47,16z"/>
   <path class="fil0" d="M326 285c-32,10 -16,57 15,47 31,-10 16,-57 -15,-47z"/>
   <path class="fil0" d="M525 62c-33,12 -15,56 15,46 11,-3 21,-16 16,-31 -4,-11 -17,-21 -31,-15z"/>
   <path class="fil0" d="M347 447l0 -1c-3,-3 -3,-3 -6,-2l6 3z"/>
  </g>
 </g>
</svg>
