<?xml version="1.0" encoding="utf-8"?>
<!-- Generator: Adobe Illustrator 22.1.0, SVG Export Plug-In . SVG Version: 6.00 Build 0)  -->
<svg version="1.1" id="Layer_1" xmlns="http://www.w3.org/2000/svg" xmlns:xlink="http://www.w3.org/1999/xlink" x="0px" y="0px"
	 viewBox="0 0 511 511" style="enable-background:new 0 0 511 511;" xml:space="preserve">
<style type="text/css">
	.st0{fill:#FFFFFF;}
</style>
<path class="st0" d="M457.5,143.4h22.3c6.3,0,12-3.6,14.7-9.4c2.6-5.5,1.8-12-2.1-16.7c-11.7-14.3-29.4-22.5-47.9-22.1
	c-18.5,0.4-35.8,9.3-47,24.1h-30.7c-2.9-11.5-12-20.5-23.6-23.2c-11.6-2.7-23.7,1.2-31.5,10.2c-6-7-14.8-11.1-24.1-11.1
	s-18.1,4.1-24.1,11.1c-6-7-14.8-11.1-24.1-11.1c-9.3,0-18.1,4.1-24.1,11.1c-7.8-9-19.9-13-31.5-10.2c-11.6,2.7-20.7,11.7-23.6,23.2
	h-46.8c-11.1-14.8-28.4-23.7-47-24.1c-18.5-0.4-36.2,7.8-47.9,22.1c-3.9,4.7-4.7,11.2-2.1,16.7c2.6,5.7,8.4,9.4,14.7,9.4h22.3
	c8.8-0.2,16.3,6.2,17.4,14.9c0.3,4.7-1.4,9.2-4.7,12.5c-3,3-7.1,4.7-11.4,4.7H31.7c-6.3-0.1-12,3.6-14.6,9.4
	c-2.7,5.8-1.6,12.7,2.7,17.5c11.9,13.6,29.2,21.3,47.3,20.7c18.1-0.5,35-9.2,46-23.5h13.4l-10.8,27.1c-3.5,8.8-2.9,18.6,1.5,26.9
	l48.5,78c1.1,2.2,1.7,4.7,1.7,7.2v61.5c0,8.9,7.2,16.1,16.1,16.1h112.4c8.9,0,16.1-7.2,16.1-16.1v-42.1c0-2.5,0.6-4.9,1.7-7.1
	l29.9-40.3c13.9-18.1,22.3-39.8,24.3-62.5c0.2-2.8,0.3-5.7,0.3-8.5v-40.1h30c11,14.3,27.9,23,46,23.5c18.1,0.5,35.4-7.1,47.3-20.7
	c4.3-4.8,5.3-11.6,2.7-17.5c-2.6-5.8-8.3-9.4-14.6-9.4h-23.1c-4.3,0-8.3-1.7-11.3-4.7c-3.3-3.3-5-7.9-4.7-12.5
	C441.3,149.6,448.8,143.2,457.5,143.4z M335.8,111.3c8.9,0,16.1,7.2,16.1,16.1v56.2c0,8.9-7.2,16.1-16.1,16.1
	c-8.9,0-16.1-7.2-16.1-16.1v-56.2C319.7,118.5,326.9,111.3,335.8,111.3z M287.6,111.3c8.9,0,16.1,7.2,16.1,16.1v56.2
	c0,8.9-7.2,16.1-16.1,16.1c-8.9,0-16.1-7.2-16.1-16.1v-56.2C271.6,118.5,278.7,111.3,287.6,111.3z M239.4,111.3
	c8.9,0,16.1,7.2,16.1,16.1v25.7c-2.7-1-5.5-1.6-8.4-1.6h-23.7v-24.1C223.4,118.5,230.6,111.3,239.4,111.3z M191.3,111.3
	c8.9,0,16.1,7.2,16.1,16.1v24.1h-32.1v-24.1C175.2,118.5,182.4,111.3,191.3,111.3z M351.6,247.2c-1.8,19.7-9.1,38.4-21.2,54
	L300.1,342c-0.2,0.3-0.4,0.6-0.6,1c-2.5,4.7-3.8,9.9-3.8,15.3v42.1H183.3v-61.5c0-5.2-1.3-10.4-3.7-15l-48.4-78
	c-2.1-4.1-2.2-8.9-0.5-13.1l20-50.1c3.6-9.2,12.5-15.2,22.4-15.1h74.2c2.4,0,4.7,1.1,6.2,2.9c1.5,1.7,2.1,4,1.7,6.3
	c-3.5,20.5-16.8,31-39.7,31h-24.1c-3.9,0-7.2,2.8-7.9,6.6c-0.7,3.8,1.4,7.6,5.1,9c0.6,0.2,59,22.9,59,72.8c0,4.4,3.6,8,8,8
	c4.4,0,8-3.6,8-8c0-35.3-22.2-58.8-41.6-72.5c15.9-0.2,30.7-8,39.9-20.9c5.7,7.9,14.7,12.7,24.4,13.1c9.7,0.4,19.1-3.7,25.4-11.1
	c10,11.7,26.9,14.5,40.1,6.6v28.5C351.8,242.2,351.7,244.7,351.6,247.2z"/>
</svg>
