<?xml version="1.0" encoding="utf-8"?>
<!-- Generator: Adobe Illustrator 22.1.0, SVG Export Plug-In . SVG Version: 6.00 Build 0)  -->
<svg version="1.1" id="Layer_1" xmlns="http://www.w3.org/2000/svg" xmlns:xlink="http://www.w3.org/1999/xlink" x="0px" y="0px"
	 viewBox="0 0 24 24" style="enable-background:new 0 0 24 24;" xml:space="preserve">
<style type="text/css">
	.st0{fill:#FFFFFF;}
</style>
<path class="st0" d="M10,2C8,2,6.1,2.4,4.7,3C3.9,3.3,3.3,3.6,2.8,4.1S2,5.3,2,6v12c0,2.6,4,4,8,4c1.8,0,3.6-0.3,5.1-0.8
	c-0.3-0.6-0.5-1.3-0.6-2c-1,0.4-2.6,0.8-4.5,0.8c-3.7,0-6-1.3-6-2v-1.3c1.5,0.8,3.8,1.3,6,1.3c1.6,0,3.2-0.2,4.5-0.6v-2.1
	c-1,0.4-2.6,0.8-4.5,0.8c-3.7,0-6-1.3-6-2v-1.3c1.5,0.8,3.8,1.3,6,1.3c1.6,0,3.2-0.2,4.5-0.6V13c0-0.7,0.2-1.4,0.5-2
	c-1,0.5-2.7,1-5,1c-3.7,0-6-1.3-6-2V8.7C4.2,8.8,4.4,8.9,4.7,9C6.1,9.6,8,10,10,10s3.9-0.4,5.3-1c0.2-0.1,0.4-0.2,0.7-0.3v1
	c0.6-0.5,1.2-0.9,2-1.1V6c0-0.7-0.4-1.4-0.8-1.9S16.1,3.3,15.3,3C13.9,2.4,12,2,10,2z M10,3.2c1.9,0,3.7,0.4,4.9,1
	c0.6,0.3,1,0.6,1.3,0.9c0.2,0.3,0.3,0.5,0.3,0.6s0,0.3-0.3,0.6c-0.2,0.3-0.7,0.6-1.3,0.9c-1.2,0.6-2.9,1-4.9,1s-3.7-0.4-4.9-1
	c-0.6-0.3-1-0.6-1.3-0.9C3.6,5.9,3.6,5.8,3.6,5.6s0-0.3,0.3-0.6c0.2-0.3,0.7-0.6,1.3-0.9C6.3,3.6,8.1,3.2,10,3.2z M19,10
	c-1.7,0-3,1.3-3,3v3v3c0,1.7,1.3,3,3,3s3-1.3,3-3v-6C22,11.3,20.7,10,19,10z M17.6,16h2.8v3.6c0,0.7-0.6,1.2-1.4,1.2
	s-1.4-0.5-1.4-1.2V16z"/>
</svg>
