<?xml version="1.0" encoding="utf-8"?>
<!-- Generator: Adobe Illustrator 22.1.0, SVG Export Plug-In . SVG Version: 6.00 Build 0)  -->
<svg version="1.1" id="Layer_1" xmlns="http://www.w3.org/2000/svg" xmlns:xlink="http://www.w3.org/1999/xlink" x="0px" y="0px"
	 viewBox="0 0 512 512" style="enable-background:new 0 0 512 512;" xml:space="preserve">
<style type="text/css">
	.st0{fill:#FFFFFF;}
</style>
<path class="st0" d="M117.1,300.2c2.7,1.8,5.8,2.7,8.9,2.7c5.2,0,10.3-2.5,13.4-7.1c25.9-38.7,69.3-61.9,115.9-61.9
	c46.5,0,89.8,23,115.8,61.6c4.9,7.4,14.9,9.3,22.3,4.4c7.4-4.9,9.3-14.9,4.4-22.3c-20.7-30.8-50.5-53.6-84.4-65.7
	c20.4-16.6,33.4-41.9,33.4-70.2c0-50-40.7-90.7-90.7-90.7s-90.7,40.7-90.7,90.7c0,28.1,12.8,53.2,33,69.9
	c-34.5,12.1-64.7,35.1-85.6,66.4C107.8,285.3,109.7,295.3,117.1,300.2z M256,83.1c32.3,0,58.6,26.3,58.6,58.6s-26.3,58.6-58.6,58.6
	s-58.6-26.3-58.6-58.6S223.7,83.1,256,83.1z M320,335.1l-23.9,17.3c-3.6,2.6-5,7.1-3.7,11.3l9.6,27.9c0.4,1.2,0.6,2.5,0.5,3.6
	c-0.3,7.5-9.7,12.6-16.6,7.7L262,385.6c-1.8-1.3-3.9-1.9-6-1.9c-2.1,0-4.2,0.6-6,1.9l-23.9,17.3c-6.9,5-16.3-0.2-16.6-7.7
	c0-1.2,0.1-2.4,0.5-3.6l9.6-27.9c1.4-4.2-0.1-8.7-3.7-11.3L192,335.1c-8-5.7-3.9-19.4,6-19.4h29.6c4.4,0,8.3-1.7,9.7-5.8l9.1-28.1
	c1.5-4.6,5.6-7,9.7-7c4.1,0,8.1,2.3,9.7,7l9.1,28.1c1.4,4.2,5.3,5.8,9.7,5.8H314C323.9,315.8,328,329.4,320,335.1z M457.2,391.3
	l-23.9,17.3c-3.6,2.6-5,7.1-3.7,11.3l9.6,27.9c0.4,1.2,0.6,2.5,0.5,3.6c-0.3,7.5-9.7,12.6-16.6,7.7l-23.9-17.3
	c-1.8-1.3-3.9-1.9-6-1.9c-2.1,0-4.2,0.6-6,1.9L363.3,459c-6.9,5-16.3-0.2-16.6-7.7c0-1.2,0.1-2.4,0.5-3.6l9.6-27.9
	c1.4-4.2-0.1-8.7-3.7-11.3l-23.9-17.3c-8-5.7-3.9-19.4,6-19.4h29.6c4.4,0,8.3-1.7,9.7-5.8l9.1-28.1c1.5-4.6,5.6-7,9.7-7
	c4.1,0,8.1,2.3,9.7,7l9.1,28.1c1.4,4.2,5.3,5.8,9.7,5.8h29.6C461.1,371.9,465.2,385.6,457.2,391.3z M182.8,391.3l-23.9,17.3
	c-3.6,2.6-5,7.1-3.7,11.3l9.6,27.9c0.4,1.2,0.6,2.5,0.5,3.6c-0.3,7.5-9.7,12.6-16.6,7.7l-23.9-17.3c-1.8-1.3-3.9-1.9-6-1.9
	c-2.1,0-4.2,0.6-6,1.9L88.9,459c-6.9,5-16.3-0.2-16.6-7.7c0-1.2,0.1-2.4,0.5-3.6l9.6-27.9c1.4-4.2-0.1-8.7-3.7-11.3l-23.9-17.3
	c-8-5.7-3.9-19.4,6-19.4h29.6c4.4,0,8.3-1.7,9.7-5.8l9.1-28.1c1.5-4.6,5.6-7,9.7-7c4.1,0,8.1,2.3,9.7,7l9.1,28.1
	c1.4,4.2,5.3,5.8,9.7,5.8h29.6C186.7,371.9,190.8,385.6,182.8,391.3z"/>
</svg>
