<?xml version="1.0" encoding="utf-8"?>
<!-- Generator: Adobe Illustrator 22.1.0, SVG Export Plug-In . SVG Version: 6.00 Build 0)  -->
<svg version="1.1" id="Layer_1" xmlns="http://www.w3.org/2000/svg" xmlns:xlink="http://www.w3.org/1999/xlink" x="0px" y="0px"
	 viewBox="0 0 511 511" style="enable-background:new 0 0 511 511;" xml:space="preserve">
<style type="text/css">
	.st0{fill:#FFFFFF;}
</style>
<path class="st0" d="M460.9,248.3c-2.5-4.2-7-6.7-11.9-6.7c-41,0-78.6,21.1-99.9,55.5H184.4c-18.5,0-36,7.2-49.1,20.3l-82.1,82.1
	c-5.4,5.4-5.4,14.2,0,19.6c33.7,33.7,69.1,68.9,69.5,69.2c5.4,5.4,14.2,5.4,19.6,0l52.7-52.4h116.3c36.3,0,69.3-20,86.1-52.1
	c0.4-0.8,42.5-81.1,64-122C463.6,257.7,463.4,252.5,460.9,248.3z M372.7,371.1c-12,22.9-35.6,37.2-61.5,37.2H189.1
	c-3.7,0-7.2,1.5-9.8,4l-47,46.7c-11.1-11-30.1-29.9-49.8-49.6l72.3-72.3c7.9-7.9,18.3-12.2,29.5-12.2h149.8l-10.7,20.3
	c-2.4,4.6-7.1,7.4-12.3,7.4h-94.3c-7.7,0-13.9,6.2-13.9,13.9s6.2,13.9,13.9,13.9h94.3c15.5,0,29.7-8.6,36.9-22.3
	c0,0,21.4-40.9,21.4-40.9c11.6-22,31.5-37.8,54.7-44.4C402,315.1,373.1,370.4,372.7,371.1z"/>
<path class="st0" d="M175.3,269.4h166.6c7.7,0,13.9-6.2,13.9-13.9V87.9c0-7.7-6.2-13.9-13.9-13.9h-41.7V60.2
	c0-23-18.7-41.7-41.7-41.7s-41.7,18.7-41.7,41.7V74h-41.7c-7.7,0-13.9,6.2-13.9,13.9v167.6C161.4,263.2,167.6,269.4,175.3,269.4z
	 M231.7,54.9c0-10.6,12.1-19.2,26.9-19.2c14.8,0,26.9,8.6,26.9,19.2V74h-53.7V54.9z"/>
</svg>
