<?xml version="1.0" encoding="utf-8"?>
<!-- Generator: Adobe Illustrator 22.1.0, SVG Export Plug-In . SVG Version: 6.00 Build 0)  -->
<svg version="1.1" id="Layer_1" xmlns="http://www.w3.org/2000/svg" xmlns:xlink="http://www.w3.org/1999/xlink" x="0px" y="0px"
	 viewBox="0 0 173 173" style="enable-background:new 0 0 173 173;" xml:space="preserve">
<style type="text/css">
	.st0{fill:#FFFFFF;}
</style>
<g>
	<path class="st0" d="M45.6,40.2c-0.6,0-1.2,0.3-1.7,0.7c-0.4,0.5-0.7,1.1-0.7,1.7c0,0.6,0.3,1.3,0.7,1.7c0.4,0.5,1.1,0.7,1.7,0.7
		c0.6,0,1.2-0.3,1.7-0.7c0.4-0.5,0.7-1.1,0.7-1.7c0-0.6-0.3-1.3-0.7-1.7C46.8,40.5,46.2,40.2,45.6,40.2z"/>
	<path class="st0" d="M54.9,41c-0.4-0.5-1.1-0.7-1.7-0.7c-0.6,0-1.2,0.3-1.7,0.7c-0.4,0.5-0.7,1.1-0.7,1.7c0,0.6,0.3,1.3,0.7,1.7
		c0.4,0.5,1.1,0.7,1.7,0.7c0.6,0,1.2-0.3,1.7-0.7c0.4-0.5,0.7-1.1,0.7-1.7C55.6,42.1,55.4,41.4,54.9,41z"/>
	<path class="st0" d="M45.6,84c-0.6,0-1.2,0.3-1.7,0.7c-0.4,0.5-0.7,1.1-0.7,1.7c0,0.6,0.3,1.3,0.7,1.7c0.4,0.5,1.1,0.7,1.7,0.7
		c0.6,0,1.2-0.3,1.7-0.7c0.4-0.5,0.7-1.1,0.7-1.7c0-0.6-0.3-1.3-0.7-1.7C46.8,84.3,46.2,84,45.6,84z"/>
	<path class="st0" d="M54.9,84.8c-0.4-0.5-1.1-0.7-1.7-0.7c-0.6,0-1.2,0.3-1.7,0.7c-0.4,0.5-0.7,1.1-0.7,1.7c0,0.6,0.3,1.3,0.7,1.7
		c0.4,0.5,1.1,0.7,1.7,0.7c0.6,0,1.2-0.3,1.7-0.7c0.4-0.5,0.7-1.1,0.7-1.7C55.6,85.9,55.4,85.2,54.9,84.8z"/>
	<path class="st0" d="M45.6,127.8c-0.6,0-1.2,0.3-1.7,0.7c-0.4,0.5-0.7,1.1-0.7,1.7c0,0.6,0.3,1.3,0.7,1.7c0.4,0.5,1.1,0.7,1.7,0.7
		c0.6,0,1.2-0.3,1.7-0.7c0.4-0.5,0.7-1.1,0.7-1.7c0-0.6-0.3-1.3-0.7-1.7C46.8,128.1,46.2,127.8,45.6,127.8z"/>
	<path class="st0" d="M54.9,128.6c-0.4-0.5-1.1-0.7-1.7-0.7c-0.6,0-1.2,0.3-1.7,0.7c-0.4,0.5-0.7,1.1-0.7,1.7c0,0.6,0.3,1.3,0.7,1.7
		c0.4,0.5,1.1,0.7,1.7,0.7c0.6,0,1.2-0.3,1.7-0.7c0.4-0.5,0.7-1.1,0.7-1.7C55.6,129.7,55.4,129,54.9,128.6z"/>
	<path class="st0" d="M146.9,62.1c1.3,0,2.4-1.1,2.4-2.5V25.8c0-1.4-1.1-2.5-2.4-2.5H26.1c-1.3,0-2.4,1.1-2.4,2.5v33.8
		c0,1.4,1.1,2.5,2.4,2.5h7v5.1h-7c-1.3,0-2.4,1.1-2.4,2.5v33.8c0,1.4,1.1,2.5,2.4,2.5h7v5.1h-7c-1.3,0-2.4,1.1-2.4,2.5v33.8
		c0,1.4,1.1,2.5,2.4,2.5h120.9c1.3,0,2.4-1.1,2.4-2.5v-33.8c0-1.4-1.1-2.5-2.4-2.5h-7v-5.1h7c1.3,0,2.4-1.1,2.4-2.5V69.6
		c0-1.4-1.1-2.5-2.4-2.5h-7v-5.1H146.9z M35.4,30.7h101.8v23.9H35.4V30.7z M35.4,74.5h101.8v23.9H35.4V74.5z M35.4,118.3h101.8v23.9
		H35.4V118.3z M135.2,110.9H37.8v-5.1h97.4V110.9z M135.2,67.1H37.8v-5.1h97.4V67.1z"/>
</g>
</svg>
