<?xml version="1.0" encoding="utf-8"?>
<!-- Generator: Adobe Illustrator 22.1.0, SVG Export Plug-In . SVG Version: 6.00 Build 0)  -->
<svg version="1.1" id="Capa_1" xmlns="http://www.w3.org/2000/svg" xmlns:xlink="http://www.w3.org/1999/xlink" x="0px" y="0px"
	 viewBox="0 0 33.3 33.3" style="enable-background:new 0 0 33.3 33.3;" xml:space="preserve">
<style type="text/css">
	.st0{fill:#FFFFFF;}
</style>
<g>
	<path class="st0" d="M22,4.6H11.3c-0.9,0-1.6,0.7-1.6,1.6v20.9c0,0.9,0.7,1.6,1.6,1.6H22c0.9,0,1.6-0.7,1.6-1.6V6.2
		C23.7,5.3,22.9,4.6,22,4.6z M14.9,5.7h3.4c0.1,0,0.2,0.1,0.2,0.2c0,0.1-0.1,0.2-0.2,0.2h-3.4c-0.1,0-0.2-0.1-0.2-0.2
		C14.7,5.8,14.8,5.7,14.9,5.7z M10.8,25.7V7.2h11.8l0,16.9l-2.7-4.6c0.8-1.2,0.9-2.8,0.1-4.2c-0.8-1.3-2.2-2-3.7-2l1.5,2.6
		c0.5,0.8,0.2,1.9-0.7,2.4c-0.8,0.5-1.9,0.2-2.4-0.7l-1.5-2.6c-0.8,1.2-0.9,2.8-0.1,4.2c0.8,1.3,2.2,2,3.7,2l2.6,4.5
		C19.4,25.7,10.8,25.7,10.8,25.7z M16.6,27.9c-0.5,0-0.8-0.4-0.8-0.8s0.4-0.8,0.8-0.8s0.8,0.4,0.8,0.8S17.1,27.9,16.6,27.9z"/>
</g>
</svg>
