<?xml version="1.0" encoding="utf-8"?>
<!-- Generator: Adobe Illustrator 22.1.0, SVG Export Plug-In . SVG Version: 6.00 Build 0)  -->
<svg version="1.1" id="Capa_1" xmlns="http://www.w3.org/2000/svg" xmlns:xlink="http://www.w3.org/1999/xlink" x="0px" y="0px"
	 viewBox="0 0 115.4 115.4" style="enable-background:new 0 0 115.4 115.4;" xml:space="preserve">
<style type="text/css">
	.st0{fill:#FFFFFF;}
</style>
<g>
	<path class="st0" d="M15.4,85H100c1.8,0,3.2-1.4,3.2-3.2V27.4c0-1.7-1.4-3.2-3.2-3.2H15.4c-1.7,0-3.2,1.4-3.2,3.2v54.4
		C12.2,83.5,13.6,85,15.4,85z M18,29.4c0-0.2,0.2-0.4,0.4-0.4h78.4c0.2,0,0.4,0.2,0.4,0.4v50.4c0,0.2-0.2,0.4-0.4,0.4H18.5
		c-0.2,0-0.4-0.2-0.4-0.4V29.4z M110,87.4v2.5c0,0.7-0.5,1.2-1.2,1.2H6.6c-0.7,0-1.2-0.5-1.2-1.2v-2.5h43c0.2,0.7,0.9,1.2,1.6,1.2
		h15.4c0.8,0,1.4-0.5,1.6-1.2H110z"/>
</g>
</svg>
