<?xml version="1.0" encoding="utf-8"?>
<!-- Generator: Adobe Illustrator 22.1.0, SVG Export Plug-In . SVG Version: 6.00 Build 0)  -->
<svg version="1.1" id="Capa_1" xmlns="http://www.w3.org/2000/svg" xmlns:xlink="http://www.w3.org/1999/xlink" x="0px" y="0px"
	 viewBox="0 0 465.3 465.3" style="enable-background:new 0 0 465.3 465.3;" xml:space="preserve">
<style type="text/css">
	.st0{fill:#FFFFFF;}
</style>
<g>
	<g>
		<path class="st0" d="M204,103.9c-5.7,0-9.5,3.8-9.5,9.5v19.1c0,5.7,3.8,9.5,9.5,9.5s9.5-3.8,9.5-9.5v-19.1
			C213.6,107.7,209.7,103.9,204,103.9z"/>
		<path class="st0" d="M261.2,103.9c-5.7,0-9.5,3.8-9.5,9.5v19.1c0,5.7,3.8,9.5,9.5,9.5s9.5-3.8,9.5-9.5v-19.1
			C270.8,107.7,267,103.9,261.2,103.9z"/>
		<path class="st0" d="M308.9,170.6V65.7c0-5.7-3.8-9.5-9.5-9.5H165.9c-5.7,0-9.5,3.8-9.5,9.5v104.9c-15.3,0-19.1,9.5-19.1,19.1
			v38.1v76.3v19.1c0,47.7,42,85.8,95.4,85.8s95.4-38.1,95.4-85.8v-19.1v-76.3v-38.1C328,180.2,328,170.6,308.9,170.6z M175.4,75.3
			h114.4v95.4H175.4V75.3z M289.9,208.8H175.4c-5.7,0-9.5-3.8-9.5-9.5s3.8-9.5,9.5-9.5h114.4c5.7,0,9.5,3.8,9.5,9.5
			C299.4,205,295.6,208.8,289.9,208.8z"/>
	</g>
</g>
</svg>
