<?xml version="1.0" encoding="UTF-8"?>
<!DOCTYPE svg PUBLIC "-//W3C//DTD SVG 1.1//EN" "http://www.w3.org/Graphics/SVG/1.1/DTD/svg11.dtd">
<!-- Creator: CorelDRAW X8 -->
<svg xmlns="http://www.w3.org/2000/svg" xml:space="preserve" width="0.666661in" height="0.666661in" version="1.1" style="shape-rendering:geometricPrecision; text-rendering:geometricPrecision; image-rendering:optimizeQuality; fill-rule:evenodd; clip-rule:evenodd"
viewBox="0 0 667 667"
 xmlns:xlink="http://www.w3.org/1999/xlink">
 <defs>
  <style type="text/css">
   <![CDATA[
    .fil0 {fill:#CD2122}
   ]]>
  </style>
 </defs>
 <g id="Layer_x0020_1">
  <metadata id="CorelCorpID_0Corel-Layer"/>
  <g id="_1789819895264">
   <path class="fil0" d="M163 577l0 -347 341 0 0 347c0,34 -18,55 -52,55l-238 0c-33,0 -51,-21 -51,-55zm-25 -360l0 368c0,35 35,72 69,72l253 0c9,0 20,-4 26,-7 7,-3 17,-10 21,-15 2,-3 5,-6 7,-9 2,-3 6,-8 7,-11 3,-6 8,-18 8,-27l0 -371c0,-7 -5,-12 -13,-12l-366 0c-7,0 -12,5 -12,12z"/>
   <path class="fil0" d="M236 34l195 0 0 135 -195 0 0 -135zm-25 -12l0 159c0,7 5,12 13,12l219 0c8,0 12,-5 12,-12l0 -159c0,-7 -4,-12 -12,-12l-219 0c-8,0 -13,5 -13,12z"/>
   <path class="fil0" d="M434 277l0 270c0,17 26,17 26,-2l0 -265c0,-24 -26,-20 -26,-3z"/>
   <path class="fil0" d="M359 65l48 0 0 18 -48 0 0 -18zm-13 30l74 0 0 -42 -74 0 0 42z"/>
   <path class="fil0" d="M259 65l48 0 0 18 -48 0 0 -18zm-13 30l74 0 0 -42 -74 0 0 42z"/>
  </g>
 </g>
</svg>
