<?xml version="1.0" encoding="utf-8"?>
<!-- Generator: Adobe Illustrator 22.1.0, SVG Export Plug-In . SVG Version: 6.00 Build 0)  -->
<svg version="1.1" id="Capa_1" xmlns="http://www.w3.org/2000/svg" xmlns:xlink="http://www.w3.org/1999/xlink" x="0px" y="0px"
	 viewBox="0 0 263.3 263.3" style="enable-background:new 0 0 263.3 263.3;" xml:space="preserve">
<style type="text/css">
	.st0{fill:#FFFFFF;}
</style>
<g>
	<path class="st0" d="M173.4,49c-5-2.5-11-0.5-13.5,4.4L85,200.7c-2.5,5-0.5,11,4.4,13.5c1.5,0.7,3,1.1,4.6,1.1c3.7,0,7.2-2,9-5.5
		l74.9-147.3C180.3,57.6,178.4,51.6,173.4,49z"/>
	<path class="st0" d="M119.7,97.5c0-21.1-17.1-38.2-38.2-38.2c-21.1,0-38.2,17.1-38.2,38.2c0,21.1,17.1,38.2,38.2,38.2
		C102.5,135.7,119.7,118.6,119.7,97.5z M81.5,115.6c-10,0-18-8.1-18-18c0-10,8.1-18,18-18c10,0,18,8.1,18,18
		C99.5,107.5,91.4,115.6,81.5,115.6z"/>
	<path class="st0" d="M181.8,127.6c-21.1,0-38.2,17.1-38.2,38.2s17.1,38.2,38.2,38.2c21.1,0,38.2-17.1,38.2-38.2
		S202.9,127.6,181.8,127.6z M181.8,183.8c-10,0-18-8.1-18-18s8.1-18,18-18c10,0,18,8.1,18,18S191.8,183.8,181.8,183.8z"/>
</g>
</svg>
