<?xml version="1.0" encoding="utf-8"?>
<!-- Generator: Adobe Illustrator 22.1.0, SVG Export Plug-In . SVG Version: 6.00 Build 0)  -->
<svg version="1.1" id="Capa_1" xmlns="http://www.w3.org/2000/svg" xmlns:xlink="http://www.w3.org/1999/xlink" x="0px" y="0px"
	 viewBox="0 0 93.2 93.2" style="enable-background:new 0 0 93.2 93.2;" xml:space="preserve">
<style type="text/css">
	.st0{fill:#FFFFFF;}
</style>
<g>
	<path class="st0" d="M61.1,9.7h-29c-2.9,0-5.3,2.4-5.3,5.3v63.2c0,2.9,2.4,5.3,5.3,5.3h29c2.9,0,5.3-2.4,5.3-5.3V15
		C66.4,12,64,9.7,61.1,9.7z M43,12.8h7.1c0.3,0,0.5,0.2,0.5,0.5c0,0.3-0.2,0.5-0.5,0.5H43c-0.3,0-0.5-0.2-0.5-0.5
		C42.6,13,42.8,12.8,43,12.8z M32.5,11.2c0.7,0,1.2,0.5,1.2,1.2s-0.5,1.2-1.2,1.2c-0.7,0-1.2-0.5-1.2-1.2S31.9,11.2,32.5,11.2z
		 M48.4,80.8h-3.7c-1.2,0-2.1-1-2.1-2.1c0-1.2,1-2.1,2.1-2.1h3.7c1.2,0,2.1,1,2.1,2.1C50.6,79.9,49.6,80.8,48.4,80.8z M64.2,74.9H29
		V18.3h35.2V74.9z"/>
</g>
</svg>
