<?xml version="1.0" encoding="utf-8"?>
<!-- Generator: Adobe Illustrator 22.1.0, SVG Export Plug-In . SVG Version: 6.00 Build 0)  -->
<svg version="1.1" id="Layer_1" xmlns="http://www.w3.org/2000/svg" xmlns:xlink="http://www.w3.org/1999/xlink" x="0px" y="0px"
	 viewBox="0 0 496 496" style="enable-background:new 0 0 496 496;" xml:space="preserve">
<style type="text/css">
	.st0{fill:#FFFFFF;}
</style>
<path class="st0" d="M411.6,265.8v-35.6l-16.4-5.4c-1.8-6.3-4.3-12.4-7.5-18.2l7.8-15.4L370.2,166l-15.4,7.8
	c-5.8-3.2-11.8-5.7-18.2-7.5l-5.4-16.4H320v-72c0-18-14.7-32.7-32.7-32.7H117.1c-18,0-32.7,14.7-32.7,32.7v340.3
	c0,18,14.7,32.7,32.7,32.7h170.1c18,0,32.7-14.7,32.7-32.7v-72h11.3l5.4-16.4c6.3-1.8,12.4-4.3,18.2-7.5l15.4,7.8l25.2-25.2
	l-7.8-15.4c3.2-5.8,5.7-11.8,7.5-18.2L411.6,265.8z M117.1,58.2h170.1c10.8,0,19.6,8.8,19.6,19.6v6.5H97.5v-6.5
	C97.5,67.1,106.3,58.2,117.1,58.2z M287.3,437.8H117.1c-10.8,0-19.6-8.8-19.6-19.6v-19.6h209.4v19.6
	C306.9,428.9,298.1,437.8,287.3,437.8z M306.9,385.4H97.5V97.5h209.4v52.3h-11.3l-1.8,5.5v-5.1v-39.7H110.6v261.7h183.2v-24.8v-6.8
	l1.8,5.5h11.3V385.4z M239.2,206.6c-3.2,5.8-5.7,11.8-7.5,18.2l-16.4,5.4v11.3h-78.5v104.7h130.9v-21.7l4.4-2.2
	c2.8,1.6,5.7,3,8.7,4.2v7.6v25.2h-157V123.7h157v40.7v5.2c-3,1.2-5.8,2.6-8.7,4.2l-15.4-7.8l-25.2,25.2L239.2,206.6z M254.5,327.9
	v5.2H149.9v-78.5h65.4v11.3l16.4,5.4c1.8,6.3,4.3,12.4,7.5,18.2l-7.8,15.4L254.5,327.9z M384.2,261.1l-0.8,3.6
	c-1.8,7.4-4.7,14.5-8.7,21.1l-1.9,3.1l6.8,13.4l-11.8,11.8l-13.4-6.8l-3.1,1.9c-6.5,4-13.6,7-21.1,8.7l-3.6,0.8l-4.7,14.2h-16.7
	l-4.7-14.3l-3.6-0.8c-7.4-1.8-14.5-4.7-21.1-8.7l-3.1-1.9l-13.4,6.8l-11.8-11.8l6.8-13.4l-1.9-3.1c-4-6.5-7-13.6-8.7-21.1l-0.8-3.6
	l-14.3-4.7v-16.7l14.3-4.7l0.8-3.6c1.8-7.4,4.7-14.5,8.7-21.1l1.9-3.1l-6.8-13.4l11.8-11.8l13.4,6.8l3.1-1.9c6.5-4,13.6-7,21.1-8.7
	l3.6-0.8l4.7-14.3h16.7l4.7,14.3l3.6,0.8c7.4,1.8,14.5,4.7,21.1,8.7l3.1,1.9l13.4-6.8l11.8,11.8l-6.8,13.4l1.9,3.1
	c4,6.5,7,13.6,8.7,21.1l0.8,3.6l14.3,4.7v16.7L384.2,261.1z"/>
<path class="st0" d="M313.4,189.1c-32.5,0-58.9,26.4-58.9,58.9c0,32.5,26.4,58.9,58.9,58.9s58.9-26.4,58.9-58.9
	C372.3,215.5,345.9,189.1,313.4,189.1z M313.4,293.8c-25.3,0-45.8-20.6-45.8-45.8c0-25.3,20.5-45.8,45.8-45.8
	c25.3,0,45.8,20.5,45.8,45.8C359.2,273.2,338.7,293.8,313.4,293.8z"/>
<path class="st0" d="M182.6,411.6h39.3v13.1h-39.3V411.6z"/>
</svg>
