<?xml version="1.0" encoding="UTF-8"?>
<!DOCTYPE svg PUBLIC "-//W3C//DTD SVG 1.1//EN" "http://www.w3.org/Graphics/SVG/1.1/DTD/svg11.dtd">
<!-- Creator: CorelDRAW X8 -->
<svg xmlns="http://www.w3.org/2000/svg" xml:space="preserve" width="0.666661in" height="0.666661in" version="1.1" style="shape-rendering:geometricPrecision; text-rendering:geometricPrecision; image-rendering:optimizeQuality; fill-rule:evenodd; clip-rule:evenodd"
viewBox="0 0 667 667"
 xmlns:xlink="http://www.w3.org/1999/xlink">
 <defs>
  <style type="text/css">
   <![CDATA[
    .fil0 {fill:#CD2122}
   ]]>
  </style>
 </defs>
 <g id="Layer_x0020_1">
  <metadata id="CorelCorpID_0Corel-Layer"/>
  <path class="fil0" d="M50 475c49,28 133,38 193,39l56 -3c35,-4 64,-9 97,-19 13,-4 37,-16 41,-17 0,25 0,49 0,73 0,22 4,35 -28,49 -65,29 -223,33 -299,11 -20,-6 -42,-12 -54,-27 -7,-9 -6,-17 -6,-32 0,-24 0,-49 0,-74zm420 59l0 -109c32,0 84,-13 115,-24 12,-4 20,-8 31,-13 0,13 2,92 -1,100 -9,21 -51,33 -75,37 -19,4 -48,9 -70,9zm-420 -188c27,12 44,20 77,26 62,12 75,11 137,11 47,0 113,-11 154,-29 6,-2 14,-7 19,-8 0,25 0,51 0,76 0,24 4,23 -42,40 -19,8 -46,14 -69,17 -14,2 -65,7 -82,7 -9,0 -12,-2 -20,-2 -46,0 -90,-7 -131,-21 -46,-16 -43,-19 -43,-40 1,-25 0,-51 0,-77zm420 51l0 -102c21,0 59,-8 80,-12 24,-6 46,-15 66,-25 0,10 2,93 -1,98 -3,5 -16,12 -22,15 -8,3 -19,7 -27,9 -9,3 -21,6 -30,8 -15,3 -51,9 -66,9zm-420 -180c13,5 23,10 36,15 100,31 266,32 351,-17l0 89c0,8 -1,9 -6,12 -34,24 -120,39 -167,39 -62,0 -105,-1 -163,-19 -58,-18 -51,-23 -51,-47 0,-24 0,-48 0,-72zm212 8c-61,0 -123,-2 -176,-24 -20,-8 -49,-16 -24,-35 15,-12 41,-19 62,-24 67,-14 173,-14 241,0 14,3 40,10 49,16l12 8c6,4 9,10 11,16 -6,3 -6,5 -16,10 -41,21 -110,33 -159,33zm202 -60c14,0 28,-3 42,-5 76,-11 98,-28 110,-31 0,10 2,93 -1,98 -12,20 -110,40 -145,40l0 -83c0,-8 -3,-15 -6,-19zm-24 -27c-11,0 -22,-7 -43,-14 -51,-18 -110,-20 -167,-20l0 -5c0,-24 45,-37 70,-43 71,-15 223,-18 287,13 10,5 28,14 28,26 0,4 -12,8 -16,10 -39,21 -112,33 -159,33zm-243 -41l0 8c-29,0 -87,11 -112,20 -28,10 -67,29 -67,60l0 382c0,36 45,55 77,64 84,25 212,25 296,1 27,-8 52,-18 68,-37 10,-11 11,-20 11,-33 32,0 84,-11 113,-20 27,-9 66,-29 66,-60l0 -383c0,-34 -47,-55 -79,-64 -84,-24 -208,-24 -294,0 -31,9 -79,29 -79,62z"/>
 </g>
</svg>
