<?xml version="1.0" encoding="utf-8"?>
<!-- Generator: Adobe Illustrator 22.1.0, SVG Export Plug-In . SVG Version: 6.00 Build 0)  -->
<svg version="1.1" id="Layer_1" xmlns="http://www.w3.org/2000/svg" xmlns:xlink="http://www.w3.org/1999/xlink" x="0px" y="0px"
	 viewBox="0 0 480 480" style="enable-background:new 0 0 480 480;" xml:space="preserve">
<style type="text/css">
	.st0{fill:#FFFFFF;}
</style>
<path class="st0" d="M347.7,70H166.3c-9.4,0-17,7.6-17,17v99.7L117,219c-1.1,1.1-1.7,2.5-1.7,4v22.7c0,3.1,2.5,5.7,5.7,5.7h11.3
	v20.3L117,287c-1.1,1.1-1.7,2.5-1.7,4v102c0,9.4,7.6,17,17,17h215.3c9.4,0,17-7.6,17-17V87C364.7,77.6,357.1,70,347.7,70z
	 M341.4,376.9c0,2.8-2.3,5.1-5.1,5.1H143.6c-2.8,0-5.1-2.3-5.1-5.1v-89.2l13.7-13.7c1-1,1.5-2.2,1.5-3.6v-25.4
	c0-2.8-2.3-5.1-5.1-5.1h-10.1v-13.1l28.9-28.9c1-1,1.5-2.2,1.5-3.6v-91.3c0-2.8,2.3-5.1,5.1-5.1h162.3c2.8,0,5.1,2.3,5.1,5.1V376.9z
	"/>
<path class="st0" d="M197.7,180.7h19.6c2.7,0,4.9-2.2,4.9-4.9v-49c0-2.7-2.2-4.9-4.9-4.9h-19.6c-2.7,0-4.9,2.2-4.9,4.9v49
	C192.8,178.5,195,180.7,197.7,180.7z M204,137.1h7v28.2h-7V137.1z"/>
<path class="st0" d="M248.2,180.7h19.6c2.7,0,4.9-2.2,4.9-4.9v-58.9c0-2.7-2.2-4.9-4.9-4.9h-19.6c-2.7,0-4.9,2.2-4.9,4.9v58.9
	C243.3,178.5,245.5,180.7,248.2,180.7z M254.4,128.2h7.2v36.2h-7.2V128.2z"/>
<path class="st0" d="M299.5,180.7h19.6c2.7,0,4.9-2.2,4.9-4.9v-49c0-2.7-2.2-4.9-4.9-4.9h-19.6c-2.7,0-4.9,2.2-4.9,4.9v49
	C294.6,178.5,296.8,180.7,299.5,180.7z M305.9,137.7h6.8v27h-6.8V137.7z"/>
</svg>
