<?xml version="1.0" encoding="UTF-8"?>
<!DOCTYPE svg PUBLIC "-//W3C//DTD SVG 1.1//EN" "http://www.w3.org/Graphics/SVG/1.1/DTD/svg11.dtd">
<!-- Creator: CorelDRAW X8 -->
<svg xmlns="http://www.w3.org/2000/svg" xml:space="preserve" width="0.666661in" height="0.666661in" version="1.1" style="shape-rendering:geometricPrecision; text-rendering:geometricPrecision; image-rendering:optimizeQuality; fill-rule:evenodd; clip-rule:evenodd"
viewBox="0 0 667 667"
 xmlns:xlink="http://www.w3.org/1999/xlink">
 <defs>
  <style type="text/css">
   <![CDATA[
    .fil0 {fill:#CD2122}
   ]]>
  </style>
 </defs>
 <g id="Layer_x0020_1">
  <metadata id="CorelCorpID_0Corel-Layer"/>
  <g id="_1789917059504">
   <path class="fil0" d="M78 55l0 202 36 0 0 118 -36 0 0 240c0,17 19,38 36,38l169 0 0 -35 98 0c7,0 4,14 3,21 -1,7 1,8 1,14l167 0c17,0 37,-21 37,-38l0 -330 -35 0 0 -28 35 0 0 -111c0,-19 -11,-28 -21,-41 -9,-10 -63,-78 -73,-84 -16,-9 -41,-7 -62,-7l0 26 5 0 0 96 26 0 0 -96c23,0 15,0 35,22 8,9 14,17 22,26 3,3 43,50 43,53l0 90 -35 0 0 79 35 0 0 306c0,9 -8,13 -17,13l-138 0 0 -37 -151 0 0 37 -135 0c-10,0 -20,-3 -20,-13l0 -215 35 0 0 -170 -35 0 0 -179c0,-17 25,-12 46,-12l0 96 26 0 0 -117c0,-4 -1,-5 -4,-5 -28,0 -63,-4 -78,11 -8,8 -15,16 -15,30z"/>
   <polygon class="fil0" points="221,136 247,136 247,27 221,27 "/>
   <path class="fil0" d="M366 136l24 0c3,-12 0,-10 0,-21 0,-8 2,-10 2,-15 0,-5 -2,-6 -2,-14 0,-7 2,-9 2,-14 0,-5 -2,-7 -2,-14 0,-7 2,-10 2,-15 0,-5 -2,-8 -2,-16l-24 0 0 109z"/>
   <polygon class="fil0" points="295,136 319,136 319,27 295,27 "/>
  </g>
 </g>
</svg>
