<?xml version="1.0" encoding="utf-8"?>
<!-- Generator: Adobe Illustrator 22.1.0, SVG Export Plug-In . SVG Version: 6.00 Build 0)  -->
<svg version="1.1" id="Layer_1" xmlns="http://www.w3.org/2000/svg" xmlns:xlink="http://www.w3.org/1999/xlink" x="0px" y="0px"
	 viewBox="0 0 512 512" style="enable-background:new 0 0 512 512;" xml:space="preserve">
<style type="text/css">
	.st0{fill:#FFFFFF;}
</style>
<g id="Portable_SSD">
	<path class="st0" d="M388.9,310.5h-13.6c-11.3,0-20.5-9.2-20.5-20.5v-54.5c11.3,0,20.5-9.2,20.5-20.5v-54.5c0-3.8-3-6.8-6.8-6.8
		v-34.1c0-3.8-3-6.8-6.8-6.8h-27.3c-3.8,0-6.8,3-6.8,6.8v34.1c-3.8,0-6.8,3-6.8,6.8V215c0,11.3,9.2,20.5,20.5,20.5V290
		c0,18.8,15.3,34.1,34.1,34.1h13.6c11.3,0,20.5,9.2,20.5,20.5v68.2c0,18.8-15.3,34.1-34.1,34.1H239c-3.8,0-6.8-3-6.8-6.8v-6.8
		c7.5,0,13.6-6.1,13.6-13.6V406h27.3c18.8,0,34.1-15.3,34.1-34.1V85.6c0-18.8-15.3-34.1-34.1-34.1h-150C104.3,51.5,89,66.8,89,85.6
		v286.3c0,18.8,15.3,34.1,34.1,34.1h81.8v13.6c0,7.5,6.1,13.6,13.6,13.6v6.8c0,11.3,9.2,20.5,20.5,20.5h136.3
		c26.4,0,47.6-21.4,47.7-47.7v-68.2C422.9,325.7,407.7,310.5,388.9,310.5z M341.2,130.4h13.6v23.4h-13.6V130.4z M335.5,213.4v-43.9
		h25.1v43.9c0,3.5-2.8,6.3-6.3,6.3h-12.5C338.2,219.7,335.5,216.9,335.5,213.4z M112.4,365.1V230.6h171.2v134.5
		c0,10.1-8.2,18.4-18.4,18.4H130.8C120.7,383.5,112.4,375.2,112.4,365.1z"/>
</g>
</svg>
