<?xml version="1.0" encoding="UTF-8"?>
<!DOCTYPE svg PUBLIC "-//W3C//DTD SVG 1.1//EN" "http://www.w3.org/Graphics/SVG/1.1/DTD/svg11.dtd">
<!-- Creator: CorelDRAW X8 -->
<svg xmlns="http://www.w3.org/2000/svg" xml:space="preserve" width="0.666661in" height="0.666661in" version="1.1" style="shape-rendering:geometricPrecision; text-rendering:geometricPrecision; image-rendering:optimizeQuality; fill-rule:evenodd; clip-rule:evenodd"
viewBox="0 0 667 667"
 xmlns:xlink="http://www.w3.org/1999/xlink">
 <defs>
  <style type="text/css">
   <![CDATA[
    .fil0 {fill:#CD2122}
   ]]>
  </style>
 </defs>
 <g id="Layer_x0020_1">
  <metadata id="CorelCorpID_0Corel-Layer"/>
  <g id="_1789816016992">
   <path class="fil0" d="M40 595l0 -148 587 0 0 148c0,5 -6,10 -11,10l-565 0c-6,0 -11,-5 -11,-10zm75 -533l437 0c4,0 7,2 9,4 2,3 2,7 3,11l16 92c2,8 3,15 4,23 3,16 6,31 8,47l13 69c1,8 2,16 4,23 4,22 8,47 12,70l4 23 -584 0 25 -139c3,-15 6,-31 8,-46 7,-39 14,-77 21,-116l8 -46c1,-6 2,-15 12,-15zm-98 374l0 160c0,4 2,10 3,13 1,1 2,3 3,5 2,2 3,4 6,6 0,0 1,1 2,1 5,4 12,7 18,7l568 0c17,0 33,-16 33,-32l0 -160c0,-6 -16,-93 -18,-106l-23 -130c-2,-9 -3,-17 -5,-26 -1,-9 -3,-18 -4,-26l-14 -79c-3,-17 -16,-30 -33,-30l-440 0c-13,0 -22,8 -28,18 -4,7 -7,28 -9,37l-11 66c-1,4 -2,8 -3,13 0,4 -1,9 -2,13 -1,4 -1,8 -2,13l-5 26c-3,17 -6,35 -9,53 -3,16 -6,34 -9,52 -4,17 -6,36 -10,53l-7 39c0,4 -1,9 -1,14z"/>
   <path class="fil0" d="M84 514l0 35c0,5 6,11 11,11l340 0c7,0 12,-5 12,-12l0 -34c0,-6 -5,-11 -13,-11 -5,0 -10,5 -10,11l0 23 -34 0 0 -23c0,-4 -1,-6 -3,-7 -7,-8 -20,-3 -20,7l0 23 -33 0 0 -23c0,-6 -5,-11 -13,-11 -5,0 -10,5 -10,11l0 23 -34 0 0 -23c0,-10 -13,-15 -20,-7 -2,1 -3,4 -3,7l0 23 -34 0 0 -23c0,-7 -5,-11 -12,-11 -5,0 -10,5 -10,11l0 23 -34 0 0 -23c0,-10 -13,-15 -20,-7 -2,1 -3,4 -3,7l0 23 -34 0 0 -23c0,-3 -1,-6 -3,-7 -7,-8 -20,-3 -20,7z"/>
   <path class="fil0" d="M548 514c15,0 14,23 0,23 -2,0 -5,-1 -7,-3 -6,-6 -5,-13 1,-17 1,-1 4,-3 6,-3zm-34 11c0,6 1,10 3,14 10,25 48,30 62,2 11,-23 -7,-49 -29,-49 -10,0 -17,2 -24,8 -5,5 -9,10 -11,18 0,2 -1,6 -1,7z"/>
  </g>
 </g>
</svg>
