<?xml version="1.0" encoding="utf-8"?>
<!-- Generator: Adobe Illustrator 22.1.0, SVG Export Plug-In . SVG Version: 6.00 Build 0)  -->
<svg version="1.1" id="Capa_1" xmlns="http://www.w3.org/2000/svg" xmlns:xlink="http://www.w3.org/1999/xlink" x="0px" y="0px"
	 viewBox="0 0 34 34" style="enable-background:new 0 0 34 34;" xml:space="preserve">
<style type="text/css">
	.st0{fill:#FFFFFF;}
</style>
<g>
	<path class="st0" d="M24.7,4.1H9.3c-1,0-1.7,0.8-1.7,1.7v22.3c0,1,0.8,1.7,1.7,1.7h15.3c1,0,1.7-0.8,1.7-1.7V5.9
		C26.4,4.9,25.6,4.1,24.7,4.1z M17,29.2c-0.6,0-1-0.5-1-1c0-0.6,0.5-1,1-1c0.6,0,1,0.5,1,1C18,28.8,17.6,29.2,17,29.2z M24.6,26.2
		H9.3v-20h15.3V26.2z"/>
</g>
</svg>
