<?xml version="1.0" encoding="utf-8"?>
<!-- Generator: Adobe Illustrator 22.1.0, SVG Export Plug-In . SVG Version: 6.00 Build 0)  -->
<svg version="1.1" id="Layer_1" xmlns="http://www.w3.org/2000/svg" xmlns:xlink="http://www.w3.org/1999/xlink" x="0px" y="0px"
	 viewBox="0 0 1000 1000" style="enable-background:new 0 0 1000 1000;" xml:space="preserve">
<style type="text/css">
	.st0{fill:#FFFFFF;}
</style>
<g>
	<g transform="translate(0.000000,511.000000) scale(0.100000,-0.100000)">
		<path class="st0" d="M4047.2,3887.4c-83.1-27.2-225.5-173-251-259.4c-11.9-39-20.3-113.6-20.3-166.2v-95H2505.9
			c-1225.9,0-1273.4-1.7-1380.2-33.9c-140.7-44-249.2-144.1-295-274.6c-28.8-84.8-30.5-184.8-30.5-1743V-338.1l47.5-96.7
			c52.5-108.5,118.7-171.3,232.3-223.8c74.6-33.9,103.5-35.6,980-40.7l902-5.1v-50.9c0-152.6,110.2-217,369.7-218.7h173v-291.7
			c0-332.3,18.7-400.2,120.4-473l57.7-40.7l858-5.1l859.7-5.1l6.8-249.2c6.8-228.9,10.2-256,50.8-335.7
			c81.4-157.7,198.4-227.2,378.1-227.2h110.2v-366.2c0-435.8,8.5-473,127.2-591.8c171.3-173,388.3-173,559.5,0
			c118.7,118.7,127.2,156,127.2,591.8v366.2h271.3h271.3v-366.2c0-435.8,8.5-473,127.2-591.8c171.3-173,388.3-173,559.5,0
			c118.7,118.7,127.2,156,127.2,590v364.5l134,5.1c117,6.8,144.2,13.5,208.5,57.7c152.6,108.5,200.1,239,200.1,544.3v206.8
			l183.2,6.8c212,6.8,264.5,32.2,323.9,156c35.6,72.9,35.6,86.5,32.2,1081.8l-5.1,1007.3l-45.8,69.5
			c-88.2,134,152.6,123.8-2794.4,123.8S3647,664.1,3558.8,530.1c-44.1-67.8-45.8-74.7-50.9-379.8l-5.1-310.3h-173
			c-259.4-1.7-368-66.2-368-220.5v-50.8h-859.7c-963.1,0-949.5-1.7-1008.9,118.7c-28.8,56-30.5,167.9-28.8,1636.2
			c0,1176.7,5.1,1592.2,20.3,1634.6c11.8,32.2,42.4,74.6,67.8,93.3c47.5,35.6,59.3,35.6,1336.2,40.7l1287,3.4v-95
			c0-52.5,8.5-127.2,20.3-166.2c27.1-93.3,167.8-234,261.1-261.1c52.5-15.3,393.4-20.3,1344.6-20.3h1275l40.7,42.4
			c35.6,33.9,42.4,57.7,42.4,135.7v93.3h635.8h637.5l40.7,42.4c42.4,40.7,42.4,44.1,42.4,364.5c0,320.5,0,323.9-42.4,364.5
			l-40.7,42.4h-637.5H6760v93.3c0,78-6.8,101.7-42.4,135.7l-40.7,42.4l-1285.2-1.7C4506.7,3906,4087.9,3901,4047.2,3887.4z
			 M6488.9,3231.2v-407H5310.4H4130.3l-40.7,42.4c-42.4,40.7-42.4,44.1-42.4,364.5s0,323.9,42.4,364.5l40.7,42.4h1180.2h1178.4
			V3231.2z M8750.7-566.9v-883.3H6353.2H3955.7v883.3v883.3h2397.5h2397.5V-566.9z M6488.9-2966.2c0-366.2,0-366.2-42.4-407
			c-54.3-56-132.3-56-186.5,0c-42.4,40.7-42.4,40.7-42.4,407v364.5h135.7h135.7L6488.9-2966.2L6488.9-2966.2z M7845.4-2966.2
			c0-366.2,0-366.2-42.4-407c-54.3-56-132.3-56-186.5,0c-42.4,40.7-42.4,40.7-42.4,407v364.5h135.7h135.7V-2966.2z"/>
	</g>
</g>
</svg>
