<svg id="Layer_1" data-name="Layer 1" xmlns="http://www.w3.org/2000/svg" viewBox="0 0 587.59 612.06"><defs><style>.cls-1,.cls-3{fill:#1e1e1e;}.cls-1{opacity:0.6;}.cls-2{fill:#efdadf;}.cls-3{opacity:0.3;}</style></defs><title>dr_icons</title><circle class="cls-1" cx="293.79" cy="306.03" r="219"/><circle class="cls-2" cx="293.79" cy="306.03" r="201.48"/><path class="cls-3" d="M456,158.85,146.62,468.2A218.42,218.42,0,0,1,74.8,306c0-120.95,98-219,219-219A218.42,218.42,0,0,1,456,158.85Z"/><path d="M196,298.14a6,6,0,0,0-6,6V326.2a6,6,0,1,0,12,0V304.14A6,6,0,0,0,196,298.14Z"/><path d="M220.46,283.43a6,6,0,0,0-6,6V326.2a6,6,0,0,0,12,0V289.43A6,6,0,0,0,220.46,283.43Z"/><path d="M244.92,261.63a6,6,0,0,0-6,6V326.2a6,6,0,0,0,12,0V267.63A6,6,0,0,0,244.92,261.63Z"/><path d="M269.38,246.66a6,6,0,0,0-6,6V326.2a6,6,0,0,0,12,0V252.66A6,6,0,0,0,269.38,246.66Z"/><path d="M432.3,359.76l-43-43a41.92,41.92,0,0,0-1.11-34.13V235.53a16,16,0,0,0-16-16H166.55a16,16,0,0,0-16,16V350.21a16,16,0,0,0,16,16h65.07v14.33H214.34a6,6,0,0,0,0,12H324.42a6,6,0,1,0,0-12H307.14V366.18h65.07a16,16,0,0,0,13.49-7.45l23.81,23.82a16.14,16.14,0,0,0,22.79,0h0a16.12,16.12,0,0,0,0-22.79Zm-8.48,14.3a4.11,4.11,0,0,1-5.82,0l-40.72-40.72,5.82-5.82,40.72,40.72a4.13,4.13,0,0,1,0,5.82Zm-51.61-19.88H166.55a4,4,0,0,1-4-4V235.53a4,4,0,0,1,4-4H372.21a4,4,0,0,1,4,4v32.35a41.72,41.72,0,1,0-9.66,71.68l9.67,9.66v1a4,4,0,0,1-4,4ZM243.62,380.51V366.18h51.52v14.33ZM371.7,322a29.74,29.74,0,1,1,0-42.07A29.53,29.53,0,0,1,371.7,322Z"/><path d="M349.88,314a13.1,13.1,0,0,1-12.27-13.85,6,6,0,1,0-12-.73A25.12,25.12,0,0,0,349.16,326h.37a6,6,0,0,0,.35-12Z"/></svg>