<svg id="Layer_1" data-name="Layer 1" xmlns="http://www.w3.org/2000/svg" viewBox="0 0 587.59 612.06"><defs><style>.cls-1,.cls-3{fill:#1e1e1e;}.cls-1{opacity:0.6;}.cls-2{fill:#efdadf;}.cls-3{opacity:0.3;}.cls-4,.cls-5{fill:none;stroke:#000;}.cls-4{stroke-miterlimit:10;stroke-width:12px;}.cls-5{stroke-linecap:round;stroke-linejoin:round;stroke-width:9px;}</style></defs><title>dr_icons</title><circle class="cls-1" cx="293.79" cy="306.03" r="219"/><circle class="cls-2" cx="293.79" cy="306.03" r="201.48"/><path class="cls-3" d="M456,158.85,146.62,468.2A218.42,218.42,0,0,1,74.8,306c0-120.95,98-219,219-219A218.42,218.42,0,0,1,456,158.85Z"/><rect class="cls-4" x="207.29" y="201.79" width="173" height="208.48" rx="12" ry="12"/><line class="cls-5" x1="249.64" y1="240.53" x2="333" y2="240.53"/><line class="cls-5" x1="249.64" y1="268.03" x2="333" y2="268.03"/><line class="cls-5" x1="249.64" y1="295.53" x2="333" y2="295.53"/><path d="M288.36,386.11v-8.78c-5-.09-10.26-1.66-13.3-3.83l2.09-5.83a23.15,23.15,0,0,0,12.52,3.74c6.18,0,10.35-3.57,10.35-8.52,0-4.79-3.39-7.74-9.83-10.35-8.86-3.48-14.35-7.48-14.35-15.05,0-7.22,5.13-12.69,13.13-14v-8.78h5.4v8.43a23.2,23.2,0,0,1,11.3,3.05l-2.17,5.74a21,21,0,0,0-11-3c-6.7,0-9.22,4-9.22,7.48,0,4.52,3.22,6.78,10.79,9.91,8.95,3.66,13.47,8.18,13.47,15.92,0,6.87-4.78,13.3-13.74,14.78v9.05Z"/></svg>