<svg id="Layer_1" data-name="Layer 1" xmlns="http://www.w3.org/2000/svg" viewBox="0 0 587.59 612.06"><defs><style>.cls-1,.cls-3{fill:#1e1e1e;}.cls-1{opacity:0.6;}.cls-2{fill:#efdadf;}.cls-3{opacity:0.3;}</style></defs><title>dr_icons</title><circle class="cls-1" cx="293.79" cy="306.03" r="219"/><circle class="cls-2" cx="293.79" cy="306.03" r="201.48"/><path class="cls-3" d="M456,158.85,146.62,468.2A218.42,218.42,0,0,1,74.8,306c0-120.95,98-219,219-219A218.42,218.42,0,0,1,456,158.85Z"/><path d="M277,185.88c-27,0-51.58,4.88-69.83,13.06C198,203,190.4,208,184.92,213.81c-5.22,5.54-8.56,12-8.86,19.08a4.7,4.7,0,0,0,0,.75c0,.1,0,.2,0,.3V281.1a4.51,4.51,0,0,0,0,.9v47.16a4.51,4.51,0,0,0,0,.9v43.26c0,7.45,3.38,14.3,8.86,20.12s13.1,10.78,22.23,14.87C225.4,416.49,250,421.38,277,421.38a247.69,247.69,0,0,0,39.2-3.46,4.8,4.8,0,1,0-.72-9.58,5.26,5.26,0,0,0-.78.12,238.54,238.54,0,0,1-37.7,3.3c-25.85,0-49.34-4.72-65.93-12.16-8.29-3.72-14.79-8.07-19.07-12.62s-6.31-9.1-6.31-13.66V350.94c5.42,5.5,12.74,10.2,21.48,14.12C225.4,373.24,250,378.12,277,378.12a200.19,200.19,0,0,0,24.64-1.5,4.81,4.81,0,1,0-1.21-9.46A191.71,191.71,0,0,1,277,368.51c-25.85,0-49.34-4.73-65.93-12.17-8.29-3.71-14.79-8.07-19.07-12.61s-6.31-9.1-6.31-13.67a4.51,4.51,0,0,0,0-.9V302.88c5.42,5.49,12.74,10.2,21.48,14.11C225.4,325.18,250,330.06,277,330.06s51.59-4.88,69.84-13.07c8.74-3.91,16.06-8.62,21.48-14.11v22.38a4.81,4.81,0,0,0,9.61.13V233.94c0-.16,0-.3,0-.45a3.38,3.38,0,0,0,0-.45v-.15a2.1,2.1,0,0,0-.15-.3c-.39-6.91-3.57-13.32-8.71-18.78C363.57,208,356,203,346.82,198.94,328.57,190.76,304,185.88,277,185.88Zm0,9.61c25.86,0,49.35,4.73,65.94,12.17,8.29,3.71,14.79,8.07,19.07,12.61s6.31,9.1,6.31,13.67-2,9.12-6.31,13.67-10.78,8.89-19.07,12.61c-16.59,7.44-40.08,12.17-65.94,12.17s-49.34-4.73-65.93-12.17c-8.29-3.72-14.79-8.07-19.07-12.61s-6.31-9.11-6.31-13.67a3.38,3.38,0,0,0,0-.45c.12-4.42,2.16-8.82,6.31-13.22s10.78-8.9,19.07-12.61C227.64,200.22,251.13,195.49,277,195.49Zm-91.31,59.33c5.42,5.49,12.74,10.2,21.48,14.11C225.4,277.12,250,282,277,282s51.59-4.88,69.84-13.07c8.74-3.91,16.06-8.62,21.48-14.11V282c0,4.57-2,9.12-6.31,13.67s-10.78,8.9-19.07,12.61c-16.59,7.44-40.08,12.17-65.94,12.17s-49.34-4.73-65.93-12.17c-8.29-3.71-14.79-8.07-19.07-12.61s-6.31-9.1-6.31-13.67a4.51,4.51,0,0,0,0-.9Zm172.12,84.85a4.81,4.81,0,0,0-3.91,4.81v24h-24a4.8,4.8,0,0,0-4.8,4.81v19.22a4.81,4.81,0,0,0,4.8,4.81h24v24a4.8,4.8,0,0,0,4.81,4.8h19.22a4.8,4.8,0,0,0,4.81-4.8v-24h24a4.81,4.81,0,0,0,4.8-4.81V373.32a4.8,4.8,0,0,0-4.8-4.81h-24v-24a4.81,4.81,0,0,0-4.81-4.81H357.79Zm5.7,9.62h9.62v24a4.8,4.8,0,0,0,4.8,4.8h24v9.61h-24a4.81,4.81,0,0,0-4.8,4.81v24h-9.62v-24a4.81,4.81,0,0,0-4.8-4.81h-24v-9.61h24a4.8,4.8,0,0,0,4.8-4.8Z"/></svg>